<svg xmlns="http://www.w3.org/2000/svg" viewBox="0 0 100 100">
    <defs>
        <linearGradient id="greenGrad" x1="0%" y1="0%" x2="100%" y2="100%">
            <stop offset="0%" stop-color="#4CAF50" />
            <stop offset="100%" stop-color="#1B5E20" />
        </linearGradient>
    </defs>

    <rect width="100" height="100" rx="24" fill="#FDFBF7" />

    <path d="M 38 45 V 32 A 12 12 0 0 1 62 32 V 45" fill="none" stroke="url(#greenGrad)" stroke-width="7" stroke-linecap="round" />

    <path d="M 28 45 L 72 45 L 66 82 C 65.5 85 63 87 60 87 L 40 87 C 37 87 34.5 85 34 82 Z" fill="url(#greenGrad)" />

    <path d="M 50 54 C 58 54, 62 61, 62 67 C 62 74, 50 80, 50 80 C 50 80, 38 74, 38 67 C 38 61, 42 54, 50 54 Z" fill="#FDFBF7" />
</svg>
